<?xml version="1.0" standalone="no"?><!DOCTYPE svg PUBLIC "-//W3C//DTD SVG 1.1//EN" "http://www.w3.org/Graphics/SVG/1.1/DTD/svg11.dtd"><svg t="1492240632349" class="icon" style="" viewBox="0 0 1024 1024" version="1.1" xmlns="http://www.w3.org/2000/svg" p-id="2360" xmlns:xlink="http://www.w3.org/1999/xlink" width="200" height="200"><defs><style type="text/css"></style></defs><path d="M1.829748 917.13818l170.36512 0L172.194868 746.780211 1.829748 746.780211 1.829748 917.13818zM35.902158 780.855284l102.21723 0 0 102.208846L35.902158 883.064131 35.902158 780.855284zM1.829748 576.429405l170.36512 0L172.194868 406.071436 1.829748 406.071436 1.829748 576.429405zM35.902158 440.145485l102.21723 0 0 102.208846L35.902158 542.354332 35.902158 440.145485zM274.412098 883.064131l749.587902 0 0-68.14196L274.412098 814.922171 274.412098 883.064131zM274.412098 167.57867l0 68.14196 749.587902 0 0-68.14196L274.412098 167.57867zM1.829748 269.791609l170.36512 0L172.194868 99.43671 1.829748 99.43671 1.829748 269.791609zM35.902158 133.50769l102.21723 0 0 102.21294L35.902158 235.720629 35.902158 133.50769zM274.412098 542.355355l749.587902 0 0-68.14196L274.412098 474.213395 274.412098 542.355355z" p-id="2361" fill="#999"></path></svg>